<svg xmlns="http://www.w3.org/2000/svg" xmlns:xlink="http://www.w3.org/1999/xlink" viewBox="0 0 412.32 359.38"><defs><style>.cls-1,.cls-19,.cls-28{fill:none;}.cls-2{isolation:isolate;}.cls-3{fill:#abd2d7;}.cls-4{fill:#284c5c;}.cls-5{fill:#346377;}.cls-6{fill:#3c6a76;}.cls-7{fill:#5799a7;}.cls-8{fill:#84b4be;}.cls-9{fill:#b03717;}.cls-10{fill:#913219;}.cls-11{fill:#d99122;}.cls-12{fill:#b56a1d;}.cls-13{fill:#1a6b9c;}.cls-14{fill:#125073;}.cls-15{fill:#ffffc7;}.cls-16{fill:#f8e4a2;}.cls-17{fill:#fefbdc;}.cls-18{clip-path:url(#clip-path);}.cls-19{stroke:#dbc7a1;stroke-width:1.52px;}.cls-19,.cls-28{stroke-linecap:round;stroke-miterlimit:10;}.cls-20{fill:#ca802d;}.cls-21{fill:#ecbc17;}.cls-22,.cls-24{fill:#4c8094;}.cls-23{fill:#5590a8;}.cls-24{mix-blend-mode:multiply;opacity:0.07;}.cls-25{fill:#fff;}.cls-26{fill:#477688;}.cls-27{fill:#fffdf2;}.cls-28{stroke:#fffdf2;stroke-width:1.51px;}</style><clipPath id="clip-path" transform="translate(-45.34 -94.01)"><path class="cls-1" d="M350,347.42H142.11c4.86,10.57,4.62,21.09,0,31.56H350a10.49,10.49,0,0,0,10.5-10.49V357.91A10.49,10.49,0,0,0,350,347.42Z"/></clipPath></defs><g class="cls-2"><g id="OBJECTS"><path class="cls-3" d="M68.65,395.14c-5.4-10.44-5-22.46,3-35.09,9.45-14.81,22.89-38,32-55.91,8.87-17.47,5.82-40.41-4.61-78C92.38,202,94,156.57,129.47,135.87s61.88-6.29,71.32,1.09C210.43,144.5,220,152.2,230,159.23A60.6,60.6,0,0,0,255.63,170c23.28,3.63,55.82-18.92,82.43-30.33,35.75-15.32,65.59-13.17,83.76,11,8.44,11.22,10.21,33.59,5.07,48.18-9,25.39-28.33,49.19-27.36,77,1,29.34,31.08,47.56,30.55,76.33-.72,40.11-41.46,61.93-76.23,68.2a191.84,191.84,0,0,1-81.76-3.17c-10.46-2.67-21.36-5.78-32.18-6-14.47-.33-29.24,1.29-43.46,3.66C175.05,418.39,86.35,429.35,68.65,395.14Z" transform="translate(-45.34 -94.01)"/><circle class="cls-3" cx="41.46" cy="118.49" r="23.04"/><circle class="cls-3" cx="37.34" cy="79.82" r="7.41"/><circle class="cls-3" cx="384.58" cy="118.49" r="4.94"/><circle class="cls-3" cx="346.82" cy="118.7" r="11.52" transform="translate(103.75 333.35) rotate(-76.25)"/><circle class="cls-3" cx="315.55" cy="115.41" r="8.23" transform="translate(85.62 302.14) rotate(-76.77)"/><path class="cls-3" d="M372.33,99A4.94,4.94,0,1,1,367.39,94,4.94,4.94,0,0,1,372.33,99Z" transform="translate(-45.34 -94.01)"/><circle class="cls-3" cx="371.42" cy="303.63" r="14.81"/><path class="cls-3" d="M451.32,382.83a4.94,4.94,0,1,1-4.94-4.94A4.94,4.94,0,0,1,451.32,382.83Z" transform="translate(-45.34 -94.01)"/><circle class="cls-3" cx="57.09" cy="321.73" r="14.81"/><path class="cls-3" d="M88.44,254.47a5.76,5.76,0,1,1-5.76-5.76A5.76,5.76,0,0,1,88.44,254.47Z" transform="translate(-45.34 -94.01)"/><path class="cls-3" d="M59.64,229.78a4.11,4.11,0,1,1-4.11-4.11A4.12,4.12,0,0,1,59.64,229.78Z" transform="translate(-45.34 -94.01)"/><circle class="cls-3" cx="389.52" cy="83.93" r="12.34"/><path class="cls-4" d="M322.73,307.81c4.72,1.94,9.35,4,14.09,5.81l3.56,1.31,1.78.65,1.8.59,3.6,1.19c1.2.39,2.42.7,3.63,1.06a170.82,170.82,0,0,0,29.61,5.75l3.75.38c1.25.13,2.51.27,3.77.29l7.54.33c2.52,0,5,0,7.56,0,1.26,0,2.52,0,3.78-.06l3.78-.23c10.11-.39,20.1-2,30.18-3.58a155.55,155.55,0,0,1-30,6.09l-3.82.42c-1.28.12-2.56.12-3.84.19-2.56.08-5.13.23-7.69.26l-7.7-.24c-1.28,0-2.56-.14-3.84-.25l-3.83-.35c-1.28-.15-2.56-.22-3.83-.44l-3.8-.6-3.81-.6-3.76-.81-3.76-.84c-1.25-.3-2.47-.68-3.71-1l-3.71-1c-1.22-.39-2.43-.82-3.64-1.23a133.16,133.16,0,0,1-14.24-5.74C331.59,312.85,327.12,310.38,322.73,307.81Z" transform="translate(-45.34 -94.01)"/><path class="cls-5" d="M442.57,327.58c-3-3.66-8.23-4.34-8.23-4.34s-.29,5.24,2.73,8.89,8.23,4.34,8.23,4.34S445.6,331.23,442.57,327.58Z" transform="translate(-45.34 -94.01)"/><path class="cls-5" d="M434.55,312.58c-2,4.29-.44,9.29-.44,9.29s4.87-1.95,6.9-6.24.44-9.29.44-9.29S436.58,308.29,434.55,312.58Z" transform="translate(-45.34 -94.01)"/><path class="cls-5" d="M362.74,330.87c-.9-4.65-5.13-7.75-5.13-7.75s-2.78,4.45-1.88,9.11,5.14,7.76,5.14,7.76S363.64,335.53,362.74,330.87Z" transform="translate(-45.34 -94.01)"/><path class="cls-5" d="M358.44,310.64c-2,4.29-.45,9.29-.45,9.29s4.87-1.95,6.9-6.24.45-9.29.45-9.29S360.47,306.35,358.44,310.64Z" transform="translate(-45.34 -94.01)"/><path class="cls-5" d="M419.86,313.42c-2.37,5-.53,10.86-.53,10.86S425,322,427.4,317s.52-10.86.52-10.86S422.23,308.4,419.86,313.42Z" transform="translate(-45.34 -94.01)"/><path class="cls-5" d="M429.61,331.35c-3.48-4.32-9.55-5.2-9.55-5.2s-.42,6.12,3.06,10.43,9.55,5.2,9.55,5.2S433.1,335.66,429.61,331.35Z" transform="translate(-45.34 -94.01)"/><path class="cls-5" d="M373.78,312.35c-2.37,5-.52,10.86-.52,10.86s5.69-2.28,8.06-7.3.52-10.86.52-10.86S376.15,307.33,373.78,312.35Z" transform="translate(-45.34 -94.01)"/><path class="cls-5" d="M378.57,335.6c-1-5.46-5.85-9.16-5.85-9.16s-3.33,5.15-2.37,10.61,5.86,9.16,5.86,9.16S379.53,341.06,378.57,335.6Z" transform="translate(-45.34 -94.01)"/><path class="cls-5" d="M417,337.81c-3.51-6.91-11.56-9.87-11.56-9.87s-2.35,8.24,1.16,15.15S418.19,353,418.19,353,420.55,344.72,417,337.81Z" transform="translate(-45.34 -94.01)"/><path class="cls-5" d="M405.76,309.69c-3.24,7-.57,15.19-.57,15.19s7.92-3.27,11.17-10.31.57-15.19.57-15.19S409,302.65,405.76,309.69Z" transform="translate(-45.34 -94.01)"/><path class="cls-5" d="M398.63,341.73c-.83-7.71-7.31-13.33-7.31-13.33S386.2,335.28,387,343s7.3,13.33,7.3,13.33S399.47,349.44,398.63,341.73Z" transform="translate(-45.34 -94.01)"/><path class="cls-5" d="M387.54,309.94c-1.84,7.53,2.34,15,2.34,15s7.15-4.72,9-12.26-2.34-15-2.34-15S389.37,302.41,387.54,309.94Z" transform="translate(-45.34 -94.01)"/><path class="cls-5" d="M448.47,315.71c-4.61,1.14-7.49,5.52-7.49,5.52s4.58,2.55,9.19,1.41,7.49-5.51,7.49-5.51S453.07,314.58,448.47,315.71Z" transform="translate(-45.34 -94.01)"/><path class="cls-4" d="M175,373.65c-5.08-.39-10.15-.89-15.21-1.68a132.77,132.77,0,0,1-15-3.36c-1.23-.36-2.47-.69-3.7-1.06l-3.64-1.25c-1.21-.43-2.43-.82-3.63-1.28l-3.57-1.44-3.56-1.47-3.47-1.67-3.47-1.66c-1.17-.54-2.27-1.22-3.4-1.82L113,355.07c-1.12-.63-2.25-1.25-3.31-2l-6.47-4.18c-2.09-1.48-4.12-3.06-6.18-4.58-1-.78-2.07-1.5-3-2.33l-2.91-2.52a155.65,155.65,0,0,1-21.22-22c7.43,7,14.71,14,22.81,20.09l3,2.33c1,.78,2,1.47,3.08,2.2,2.07,1.44,4.1,2.93,6.2,4.32l6.39,4c1,.7,2.16,1.29,3.27,1.9l3.3,1.82a169.78,169.78,0,0,0,27.64,12.08c1.2.4,2.38.83,3.59,1.19l3.64,1.06,1.81.55,1.84.47,3.67.95C165,371.64,170,372.56,175,373.65Z" transform="translate(-45.34 -94.01)"/><path class="cls-5" d="M65.13,321.85c4.57-1.29,9.24,1.1,9.24,1.1s-2.73,4.48-7.3,5.77-9.24-1.1-9.24-1.1S60.57,323.14,65.13,321.85Z" transform="translate(-45.34 -94.01)"/><path class="cls-5" d="M80.25,314.06c-.77,4.68-4.91,7.9-4.91,7.9s-2.9-4.37-2.13-9.06,4.91-7.9,4.91-7.9S81,309.38,80.25,314.06Z" transform="translate(-45.34 -94.01)"/><path class="cls-5" d="M129,369.9c3.38-3.32,8.63-3.47,8.63-3.47s-.25,5.25-3.63,8.57-8.64,3.47-8.64,3.47S125.58,373.23,129,369.9Z" transform="translate(-45.34 -94.01)"/><path class="cls-5" d="M144,355.69c-.76,4.68-4.91,7.9-4.91,7.9s-2.9-4.37-2.13-9,4.91-7.9,4.91-7.9S144.77,351,144,355.69Z" transform="translate(-45.34 -94.01)"/><path class="cls-5" d="M91.87,323.1c-.89,5.47-5.74,9.23-5.74,9.23s-3.39-5.11-2.49-10.58,5.74-9.24,5.74-9.24S92.77,317.62,91.87,323.1Z" transform="translate(-45.34 -94.01)"/><path class="cls-5" d="M73.66,332.31c5.31-1.58,10.81,1.15,10.81,1.15s-3.12,5.27-8.44,6.85-10.82-1.15-10.82-1.15S68.34,333.89,73.66,332.31Z" transform="translate(-45.34 -94.01)"/><path class="cls-5" d="M130.41,348.39c-.9,5.47-5.74,9.23-5.74,9.23s-3.39-5.11-2.5-10.58,5.74-9.24,5.74-9.24S131.3,342.91,130.41,348.39Z" transform="translate(-45.34 -94.01)"/><path class="cls-5" d="M113.25,364.8c3.9-3.95,10-4.22,10-4.22s-.19,6.13-4.09,10.08-10,4.22-10,4.22S109.36,368.75,113.25,364.8Z" transform="translate(-45.34 -94.01)"/><path class="cls-5" d="M80.34,344.77c6.81-3.69,15.11-1.56,15.11-1.56S92.71,351.33,85.9,355s-15.12,1.56-15.12,1.56S73.52,348.47,80.34,344.77Z" transform="translate(-45.34 -94.01)"/><path class="cls-5" d="M105.59,328c-1.33,7.64-8.15,12.83-8.15,12.83S92.77,333.67,94.1,326s8.15-12.83,8.15-12.83S106.92,320.39,105.59,328Z" transform="translate(-45.34 -94.01)"/><path class="cls-5" d="M93.26,358.45c5.06-5.87,13.58-6.82,13.58-6.82s.32,8.57-4.75,14.44-13.58,6.82-13.58,6.82S88.2,364.32,93.26,358.45Z" transform="translate(-45.34 -94.01)"/><path class="cls-5" d="M120.44,338.59c-2.76,7.24-10.45,11-10.45,11s-3.21-7.95-.44-15.19,10.46-11,10.46-11S123.21,331.35,120.44,338.59Z" transform="translate(-45.34 -94.01)"/><path class="cls-5" d="M67,308.74c3.15,3.55,3,8.79,3,8.79s-5.22-.51-8.37-4.06-3-8.79-3-8.79S63.87,305.19,67,308.74Z" transform="translate(-45.34 -94.01)"/><path class="cls-6" d="M333.06,321c18.58-7.76,46.63,13.71,51.29,20.29-2.63,1.75-6.52,6.36-6.52,6.36L388.1,344s16.53,15.68,13,35.22c-27.76.69-51.69-19.48-51.69-19.48l1.84-13.14-6.94,10.92A47.86,47.86,0,0,1,333.06,321Z" transform="translate(-45.34 -94.01)"/><path class="cls-7" d="M333.06,321s28.88,22,57.29,46.06C363.56,351.84,333.06,321,333.06,321Z" transform="translate(-45.34 -94.01)"/><path class="cls-6" d="M161,322.77C142.08,315.84,136.08,281,137.13,273c3.11.51,9.1-.23,9.1-.23l-10-4.35s-1.49-22.74,14.38-34.68c20.84,18.36,24.71,49.41,24.71,49.41l-10.28,8.4,12.51-3.31A47.87,47.87,0,0,1,161,322.77Z" transform="translate(-45.34 -94.01)"/><path class="cls-7" d="M161,322.77s-6.23-35.79-10.77-72.72C159.57,279.39,161,322.77,161,322.77Z" transform="translate(-45.34 -94.01)"/><path class="cls-6" d="M84.8,386.46c.19,7.79-11.5,14.87-14.53,15.63a16.49,16.49,0,0,0-1.37-3.25l-.15,4.2s-8,3.75-14.52-.27c3.66-10.1,14.29-15.88,14.29-15.88L73,389.4l-3-4A18.51,18.51,0,0,1,84.8,386.46Z" transform="translate(-45.34 -94.01)"/><path class="cls-7" d="M84.8,386.46s-12,7.3-24.65,14.16C69.39,393.11,84.8,386.46,84.8,386.46Z" transform="translate(-45.34 -94.01)"/><path class="cls-6" d="M69.17,379c-1.93,3.48-8.91,3.61-10.44,3.16a9,9,0,0,0,.23-1.79l-1.15,1.82s-4.49-.39-6.35-3.86c4.22-3.52,10.4-3.34,10.4-3.34l1.33,2.27-.26-2.55A9.45,9.45,0,0,1,69.17,379Z" transform="translate(-45.34 -94.01)"/><path class="cls-7" d="M69.17,379s-7.18.14-14.54-.09C60.65,378,69.17,379,69.17,379Z" transform="translate(-45.34 -94.01)"/><path class="cls-6" d="M122.89,246.56c-4,.46-8.1-5.17-8.63-6.67a8.8,8.8,0,0,0,1.59-.85l-2.15.11s-2.27-3.89-.53-7.4c5.31,1.39,8.75,6.54,8.75,6.54l-1.07,2.4,1.92-1.7A9.46,9.46,0,0,1,122.89,246.56Z" transform="translate(-45.34 -94.01)"/><path class="cls-7" d="M122.89,246.56s-4.27-5.77-8.35-11.9C118.79,239,122.89,246.56,122.89,246.56Z" transform="translate(-45.34 -94.01)"/><path class="cls-6" d="M116.3,250.56c-1.71,1.59-5.62.39-6.39-.14a5.27,5.27,0,0,0,.45-.95l-1,.8a5,5,0,0,1-2.83-3.3,10.16,10.16,0,0,1,6.4,0l.33,1.5.31-1.46A5.55,5.55,0,0,1,116.3,250.56Z" transform="translate(-45.34 -94.01)"/><path class="cls-7" d="M116.3,250.56s-4-1.23-8.08-2.7A38.17,38.17,0,0,1,116.3,250.56Z" transform="translate(-45.34 -94.01)"/><path class="cls-6" d="M404.62,264.83c-2.07-7.34,7.27-16.92,10-18.38a17,17,0,0,0,2.1,2.75l-.88-4s6.64-5.5,13.83-3.29c-1,10.47-9.67,18.56-9.67,18.56l-4.86-1.29,3.79,3.1A18.14,18.14,0,0,1,404.62,264.83Z" transform="translate(-45.34 -94.01)"/><path class="cls-7" d="M404.62,264.83s9.6-9.87,19.92-19.46C417.62,254.75,404.62,264.83,404.62,264.83Z" transform="translate(-45.34 -94.01)"/><path class="cls-6" d="M409.7,272c2.9-2.31,8.94.09,10.09,1a8.07,8.07,0,0,0-.84,1.46l1.64-1.15s3.71,1.95,4.06,5.58c-4.88,1.51-10.12-.86-10.12-.86l-.33-2.42-.68,2.28A8.79,8.79,0,0,1,409.7,272Z" transform="translate(-45.34 -94.01)"/><path class="cls-7" d="M409.7,272s6.21,2.45,12.44,5.28C416.64,275.9,409.7,272,409.7,272Z" transform="translate(-45.34 -94.01)"/><path class="cls-7" d="M306.08,316.16c.3-11.31,9.42-38,19.69-42,2.91,4.21,3.54,10.91,3.54,10.91s3.08-14.64,14.79-18.59c.55,5.18.69,14.12.69,14.12s9.19-14.73,25.2-15c-1.36,3.31-6.4,12.81-6.4,12.81s11.82-10.07,38.73-5.76c-11.05,21.83-28,25.5-28,25.5s11.76,1.66,16.25,3.06c-9.48,16.46-27.36,13-27.36,13s5.3,3,10,5.5c-10.4,6.7-25.45,2.63-25.45,2.63s5.21,6.94,10.12,9.61C312.2,336.53,306.08,316.16,306.08,316.16Z" transform="translate(-45.34 -94.01)"/><path class="cls-6" d="M306.08,316.16s38.89-18.74,65.75-27C346,303.48,306.08,316.16,306.08,316.16Z" transform="translate(-45.34 -94.01)"/><path class="cls-7" d="M158.72,355.29c-11.3.49-38.57-6.74-43.24-16.71,4-3.2,10.64-4.3,10.64-4.3s-14.82-2-19.57-13.46c5.12-.9,14-1.66,14-1.66s-15.34-8.15-16.69-24.1c3.4,1.13,13.22,5.49,13.22,5.49s-10.86-11.09-8.44-38.23c22.55,9.5,27.39,26.18,27.39,26.18s.84-11.84,1.93-16.42c17.07,8.31,14.86,26.38,14.86,26.38s2.66-5.49,4.79-10.33c7.41,9.9,4.4,25.21,4.4,25.21s6.56-5.68,8.87-10.77C178.62,347.77,158.72,355.29,158.72,355.29Z" transform="translate(-45.34 -94.01)"/><path class="cls-6" d="M158.72,355.29s-21.4-37.48-31.53-63.7C143.29,316.36,158.72,355.29,158.72,355.29Z" transform="translate(-45.34 -94.01)"/><path class="cls-7" d="M147.69,378.26c1.46,8.43-1.09,29.5-7.87,33.84-2.71-2.71-4.16-7.6-4.16-7.6s0,11.29-7.84,15.83c-1.16-3.76-2.59-10.38-2.59-10.38s-4.4,12.2-15.84,14.58c.49-2.65,2.69-10.38,2.69-10.38s-7,9.09-26.91,9.6C89.84,406,101.46,401,101.46,401a114.11,114.11,0,0,1-12.1,0c4.35-13.51,17.68-13.4,17.68-13.4s-4.25-1.52-8-2.71c6.45-6.4,17.85-5.46,17.85-5.46s-4.77-4.43-8.69-5.72C140.27,364,147.69,378.26,147.69,378.26Z" transform="translate(-45.34 -94.01)"/><path class="cls-6" d="M147.69,378.26s-25.09,19.26-43.11,29.1C121,393.17,147.69,378.26,147.69,378.26Z" transform="translate(-45.34 -94.01)"/><path class="cls-4" d="M299.58,325.28c1.29-4.93,2.69-9.83,4.38-14.66a132.84,132.84,0,0,1,6-14.14c.57-1.14,1.12-2.3,1.71-3.44l1.88-3.36c.64-1.11,1.24-2.25,1.91-3.34l2.06-3.26,2.09-3.23,2.26-3.12,2.26-3.12c.74-1.05,1.6-2,2.4-3l2.46-3c.82-1,1.63-2,2.53-2.91l5.27-5.61c1.83-1.79,3.75-3.5,5.62-5.25,1-.86,1.85-1.77,2.84-2.59l3-2.4A155.81,155.81,0,0,1,373.73,232c-8.2,6.06-16.43,12-23.86,18.84L347,253.3c-.94.84-1.81,1.76-2.71,2.63-1.79,1.78-3.62,3.51-5.37,5.33l-5.1,5.57c-.87.91-1.66,1.89-2.45,2.87L329,272.62a170.4,170.4,0,0,0-16.85,25c-.6,1.11-1.25,2.2-1.82,3.32l-1.7,3.38L307.8,306l-.79,1.72-1.59,3.45C303.34,315.82,301.54,320.57,299.58,325.28Z" transform="translate(-45.34 -94.01)"/><path class="cls-5" d="M370.26,226.49c.45,4.73-2.74,8.9-2.74,8.9s-3.92-3.5-4.37-8.22,2.74-8.89,2.74-8.89S369.81,221.77,370.26,226.49Z" transform="translate(-45.34 -94.01)"/><path class="cls-5" d="M375.21,242.77c-4.47-1.6-6.89-6.25-6.89-6.25s4.82-2.07,9.29-.48,6.89,6.25,6.89,6.25S379.68,244.36,375.21,242.77Z" transform="translate(-45.34 -94.01)"/><path class="cls-5" d="M311.52,280.67c2.67,3.92,1.87,9.11,1.87,9.11s-5.11-1.18-7.78-5.11-1.86-9.12-1.86-9.12S308.86,276.74,311.52,280.67Z" transform="translate(-45.34 -94.01)"/><path class="cls-5" d="M322.81,298c-4.47-1.6-6.9-6.25-6.9-6.25s4.83-2.07,9.3-.48,6.89,6.25,6.89,6.25S327.28,299.6,322.81,298Z" transform="translate(-45.34 -94.01)"/><path class="cls-5" d="M364.23,252.58c-5.22-1.87-8.05-7.31-8.05-7.31s5.63-2.42,10.86-.55,8,7.3,8,7.3S369.45,254.44,364.23,252.58Z" transform="translate(-45.34 -94.01)"/><path class="cls-5" d="M358.44,233c.59,5.52-3.07,10.44-3.07,10.44s-4.63-4-5.23-9.54,3.07-10.43,3.07-10.43S357.84,227.49,358.44,233Z" transform="translate(-45.34 -94.01)"/><path class="cls-5" d="M332.43,285.94c-5.22-1.86-8.05-7.3-8.05-7.3s5.64-2.42,10.86-.55,8.05,7.3,8.05,7.3S337.66,287.81,332.43,285.94Z" transform="translate(-45.34 -94.01)"/><path class="cls-5" d="M319.36,266.12c3.19,4.54,2.35,10.62,2.35,10.62s-6-1.28-9.18-5.82-2.35-10.62-2.35-10.62S316.18,261.58,319.36,266.12Z" transform="translate(-45.34 -94.01)"/><path class="cls-5" d="M345,237.34c2.41,7.36-1.18,15.15-1.18,15.15s-7.5-4.16-9.91-11.52,1.18-15.16,1.18-15.16S342.56,230,345,237.34Z" transform="translate(-45.34 -94.01)"/><path class="cls-5" d="M356.91,265.19c-7.27-2.68-11.15-10.33-11.15-10.33s7.91-3.3,15.18-.62,11.16,10.33,11.16,10.33S364.19,267.87,356.91,265.19Z" transform="translate(-45.34 -94.01)"/><path class="cls-5" d="M329.2,247.6c4.86,6,4.27,14.58,4.27,14.58S325,261,320.12,254.91s-4.27-14.58-4.27-14.58S324.33,241.56,329.2,247.6Z" transform="translate(-45.34 -94.01)"/><path class="cls-5" d="M343.86,277.9c-6.63-4-9-12.26-9-12.26s8.4-1.73,15,2.29,9,12.27,9,12.27S350.49,281.92,343.86,277.9Z" transform="translate(-45.34 -94.01)"/><path class="cls-5" d="M382.82,230.71c-4.06,2.46-9.2,1.4-9.2,1.4s1.44-5.05,5.5-7.51,9.19-1.4,9.19-1.4S386.88,228.25,382.82,230.71Z" transform="translate(-45.34 -94.01)"/><ellipse class="cls-8" cx="201.32" cy="354.38" rx="151.69" ry="5"/><rect class="cls-9" x="84.79" y="287.76" width="239.25" height="67.21" rx="9.7"/><path class="cls-10" d="M361.61,381.77H137.88a7.76,7.76,0,0,0-7.44,5.55H369A7.75,7.75,0,0,0,361.61,381.77Z" transform="translate(-45.34 -94.01)"/><path class="cls-10" d="M130.13,430.49v10.73a7.76,7.76,0,0,0,7.76,7.76H361.62a7.76,7.76,0,0,0,7.76-7.76V430.49Z" transform="translate(-45.34 -94.01)"/><rect class="cls-11" x="301.83" y="292.68" width="9.9" height="56.39"/><rect class="cls-11" x="99.42" y="292.68" width="9.9" height="56.39"/><rect class="cls-11" x="313.66" y="292.68" width="2.56" height="56.39"/><rect class="cls-11" x="296.13" y="292.68" width="2.56" height="56.39"/><rect class="cls-11" x="94.2" y="292.68" width="2.56" height="56.39"/><rect class="cls-12" x="301.83" y="336.41" width="9.9" height="12.65"/><rect class="cls-12" x="99.42" y="336.41" width="9.9" height="12.65"/><rect class="cls-12" x="313.66" y="336.41" width="2.56" height="12.65"/><rect class="cls-12" x="296.13" y="336.41" width="2.56" height="12.65"/><rect class="cls-12" x="94.2" y="336.41" width="2.56" height="12.65"/><rect class="cls-13" x="105.78" y="210.38" width="197.26" height="40.81" rx="5.27"/><path class="cls-14" d="M151.12,328.4V341a4.21,4.21,0,0,0,4.22,4.21H344.17a4.21,4.21,0,0,0,4.21-4.21V328.4Z" transform="translate(-45.34 -94.01)"/><rect class="cls-15" x="275.76" y="213.66" width="10.24" height="34.39"/><rect class="cls-15" x="270.43" y="213.66" width="2.76" height="34.39"/><rect class="cls-15" x="126.75" y="213.66" width="2.76" height="34.39"/><rect class="cls-15" x="121.69" y="213.66" width="2.76" height="34.39"/><rect class="cls-16" x="275.76" y="234.38" width="10.24" height="13.67"/><rect class="cls-16" x="270.43" y="234.38" width="2.76" height="13.67"/><rect class="cls-16" x="126.75" y="234.38" width="2.76" height="13.67"/><rect class="cls-16" x="121.69" y="234.38" width="2.76" height="13.67"/><path class="cls-17" d="M350,347.42H142.11c4.86,10.57,4.62,21.09,0,31.56H350a10.49,10.49,0,0,0,10.5-10.49V357.91A10.49,10.49,0,0,0,350,347.42Z" transform="translate(-45.34 -94.01)"/><g class="cls-18"><line class="cls-19" x1="96.68" y1="260.07" x2="288.67" y2="260.07"/><line class="cls-19" x1="96.68" y1="271.49" x2="274.81" y2="271.49"/><line class="cls-19" x1="96.68" y1="276.76" x2="295.99" y2="276.76"/><line class="cls-19" x1="96.68" y1="265.83" x2="263.98" y2="265.83"/><line class="cls-19" x1="273.44" y1="265.83" x2="280.76" y2="265.83"/></g><path class="cls-20" d="M355.14,348.78c-1.21,3.05-5.87,16.37-.29,29a10.5,10.5,0,0,0,5.62-9.29V357.91A10.49,10.49,0,0,0,355.14,348.78Z" transform="translate(-45.34 -94.01)"/><path class="cls-21" d="M350.89,381.74H138.07a2.41,2.41,0,0,1,0-4.81H350.89a6.85,6.85,0,0,0,6.85-6.84V356.58a6.85,6.85,0,0,0-6.85-6.84H138.07a2.41,2.41,0,0,1,0-4.81H350.89a11.66,11.66,0,0,1,11.65,11.65v13.51A11.66,11.66,0,0,1,350.89,381.74Z" transform="translate(-45.34 -94.01)"/><path class="cls-21" d="M355.41,380a1,1,0,0,1-.93-.58c-7.45-15-.32-31.07,0-31.75a1,1,0,1,1,1.9.86c-.07.16-7,15.88,0,30a1.06,1.06,0,0,1-.47,1.4A1.12,1.12,0,0,1,355.41,380Z" transform="translate(-45.34 -94.01)"/><rect class="cls-22" x="145.9" y="42.9" width="114.88" height="167.62" rx="6.2"/><rect class="cls-23" x="145.9" y="44.38" width="113.45" height="164.66" rx="6.2"/><path class="cls-24" d="M201.36,138.39h-3V303.05H301a3.66,3.66,0,0,0,2.95-1.49Z" transform="translate(-45.34 -94.01)"/><rect class="cls-25" x="145.9" y="55.92" width="7.49" height="4.03"/><rect class="cls-25" x="145.9" y="62.99" width="7.49" height="4.03"/><rect class="cls-25" x="145.9" y="192.13" width="7.49" height="4.03"/><rect class="cls-26" x="151.66" y="42.9" width="3.91" height="167.62"/><rect class="cls-27" x="198.75" y="151.86" width="15.94" height="0.87"/><path class="cls-27" d="M261,242h-17.8a1.53,1.53,0,0,0,0,3.06H261a1.52,1.52,0,0,0,1.53-1.53h0A1.53,1.53,0,0,0,261,242Z" transform="translate(-45.34 -94.01)"/><path class="cls-27" d="M260,247.55H244.2a1.53,1.53,0,0,0,0,3.06H260a1.53,1.53,0,0,0,0-3.06Z" transform="translate(-45.34 -94.01)"/><path class="cls-27" d="M256.51,253.48H248a1.42,1.42,0,0,0-1.53,1.26h0A1.42,1.42,0,0,0,248,256h8.55a1.42,1.42,0,0,0,1.53-1.26h0A1.42,1.42,0,0,0,256.51,253.48Z" transform="translate(-45.34 -94.01)"/><polygon class="cls-27" points="199.84 157.48 201.41 158.78 212.02 158.78 213.59 157.48 199.84 157.48"/><path class="cls-27" d="M249.17,257.18a4.44,4.44,0,0,0,3.21,1.17,4.23,4.23,0,0,0,3.16-1.17Z" transform="translate(-45.34 -94.01)"/><path class="cls-27" d="M252.28,193.81a19.93,19.93,0,0,0-19.95,19.92c0,4.67,2.75,9.77,4.28,12.36,4.66,7.93,6.39,10.52,7.12,14.35H249v-18a6.16,6.16,0,0,1-4-3.52c-.63-1.52-.51-3.16.3-4a2.58,2.58,0,0,1,2.84-.64c.66.27,2.19,1.28,2.19,4.78v2.33a9.2,9.2,0,0,0,1.45.11,14.72,14.72,0,0,0,2.81-.24v-3.92c0-2.11,1.22-3.07,2.44-3.08h0a2.85,2.85,0,0,1,2.73,3,4.78,4.78,0,0,1-1.33,3.55,6,6,0,0,1-2.59,1.48v18.12h5c.81-3.87,2.76-6.85,7.12-14.33,2.95-5.05,4.3-7.68,4.3-12.35A19.93,19.93,0,0,0,252.28,193.81Z" transform="translate(-45.34 -94.01)"/><path class="cls-27" d="M251.74,222.85a10.77,10.77,0,0,1-1.45-.1v17.69h4.26V222.62A16.05,16.05,0,0,1,251.74,222.85Z" transform="translate(-45.34 -94.01)"/><path class="cls-27" d="M258.46,217.31a1.59,1.59,0,0,0-1.45-1.7h0c-.72,0-1.18.7-1.18,1.8V221a4.5,4.5,0,0,0,1.68-1A3.5,3.5,0,0,0,258.46,217.31Z" transform="translate(-45.34 -94.01)"/><path class="cls-27" d="M247.61,215.53a1.12,1.12,0,0,0-.44-.09,1.44,1.44,0,0,0-1,.45,2.68,2.68,0,0,0,0,2.57,4.89,4.89,0,0,0,2.87,2.66v-2C249,217.24,248.49,215.89,247.61,215.53Z" transform="translate(-45.34 -94.01)"/><line class="cls-28" x1="206.49" y1="97.22" x2="206.49" y2="91.3"/><line class="cls-28" x1="191.07" y1="101.67" x2="186.89" y2="97.48"/><line class="cls-28" x1="221.92" y1="101.67" x2="226.1" y2="97.48"/><line class="cls-28" x1="230.59" y1="119.38" x2="236.51" y2="119.38"/><line class="cls-28" x1="176.84" y1="119.38" x2="182.76" y2="119.38"/><path class="cls-25" d="M438.42,295a1.39,1.39,0,1,1-1.39-1.38A1.39,1.39,0,0,1,438.42,295Z" transform="translate(-45.34 -94.01)"/><path class="cls-25" d="M444.32,285.67a2.26,2.26,0,1,1-2.25-2.26A2.26,2.26,0,0,1,444.32,285.67Z" transform="translate(-45.34 -94.01)"/><path class="cls-25" d="M452.13,297.56a2.87,2.87,0,1,1-2.86-2.86A2.87,2.87,0,0,1,452.13,297.56Z" transform="translate(-45.34 -94.01)"/><path class="cls-25" d="M88.74,287.14A2.14,2.14,0,1,1,86.6,285,2.14,2.14,0,0,1,88.74,287.14Z" transform="translate(-45.34 -94.01)"/><path class="cls-25" d="M95.49,280.21a3.38,3.38,0,1,1-3.38-3.38A3.38,3.38,0,0,1,95.49,280.21Z" transform="translate(-45.34 -94.01)"/><circle class="cls-25" cx="35.39" cy="184.77" r="1.96"/><path class="cls-25" d="M59.57,354a1.07,1.07,0,1,1-2.13,0,1.07,1.07,0,0,1,2.13,0Z" transform="translate(-45.34 -94.01)"/><path class="cls-25" d="M51,351.17a2.85,2.85,0,1,1-2.84-2.85A2.84,2.84,0,0,1,51,351.17Z" transform="translate(-45.34 -94.01)"/><path class="cls-25" d="M52.1,369A2.14,2.14,0,1,1,50,366.82,2.14,2.14,0,0,1,52.1,369Z" transform="translate(-45.34 -94.01)"/><path class="cls-25" d="M174.1,210.67A1.07,1.07,0,1,1,173,209.6,1.07,1.07,0,0,1,174.1,210.67Z" transform="translate(-45.34 -94.01)"/><path class="cls-25" d="M168.05,207.83a2.85,2.85,0,1,1-2.84-2.85A2.84,2.84,0,0,1,168.05,207.83Z" transform="translate(-45.34 -94.01)"/><circle class="cls-25" cx="129.65" cy="132.84" r="2.31"/><circle class="cls-25" cx="324.57" cy="109.72" r="1.24"/><path class="cls-25" d="M370.8,191.29a3.74,3.74,0,1,1-3.74-3.74A3.73,3.73,0,0,1,370.8,191.29Z" transform="translate(-45.34 -94.01)"/><path class="cls-25" d="M359.77,206.76a2.14,2.14,0,1,1-2.13-2.14A2.13,2.13,0,0,1,359.77,206.76Z" transform="translate(-45.34 -94.01)"/><path class="cls-25" d="M409.16,408.77a1.64,1.64,0,1,1-1.63-1.63A1.63,1.63,0,0,1,409.16,408.77Z" transform="translate(-45.34 -94.01)"/><circle class="cls-25" cx="369.74" cy="308.02" r="2.66"/><circle class="cls-25" cx="372.6" cy="321.09" r="2.25"/><path class="cls-25" d="M68.4,439.83a1.64,1.64,0,1,1-1.63-1.64A1.63,1.63,0,0,1,68.4,439.83Z" transform="translate(-45.34 -94.01)"/><path class="cls-25" d="M71.67,426.75a2.86,2.86,0,1,1-2.86-2.86A2.86,2.86,0,0,1,71.67,426.75Z" transform="translate(-45.34 -94.01)"/><path class="cls-25" d="M79,438a1.84,1.84,0,1,1-1.84-1.84A1.85,1.85,0,0,1,79,438Z" transform="translate(-45.34 -94.01)"/></g></g></svg>