<svg xmlns="http://www.w3.org/2000/svg" viewBox="0 0 370.29 312"><defs><style>.cls-1{fill:#f4f3ff;}.cls-2{opacity:0.46;}.cls-14,.cls-3{fill:#fff;}.cls-4{fill:#e4e4f9;}.cls-5{fill:#90aee4;}.cls-6{fill:#e3e1ff;}.cls-7{fill:#a4a4ed;}.cls-8{fill:#fc6681;}.cls-9{fill:#bdd4ec;}.cls-10{fill:#766cff;}.cls-11{fill:#ededf9;}.cls-12{fill:#dcdcef;}.cls-13{fill:#06005a;}.cls-14{opacity:0.43;}.cls-15{fill:#003;}.cls-16{fill:#ea496c;}.cls-17{fill:#ff948c;}.cls-18{fill:#ef7e7b;}.cls-19,.cls-20{fill:#f96662;}.cls-19{opacity:0.51;}.cls-21{fill:#00001e;}.cls-22{fill:#080866;}.cls-23{fill:#ecebf2;}.cls-24{fill:#f25375;}.cls-25{fill:#6c97d3;}</style></defs><g id="OBJECTS"><path class="cls-1" d="M179.82,420c-33,2.95-63.33-18.88-84.47-44.35-20.47-24.66-36-55.49-34-87.48a89.8,89.8,0,0,1,26.09-57.58c10.95-10.87,25.89-19.06,41.24-17.47,18.48,1.91,33.46,17.25,51.93,19.25,18.81,2,35.82-10,52-19.87,14.54-8.87,30.38-16.51,47.36-17.86s35.32,4.62,45.21,18.49c7.7,10.8,9.69,25.2,18.71,34.93,9.41,10.15,24.1,12.84,37.21,17.3,22.33,7.61,43.6,23.81,49,46.76,5.1,21.48-4.73,44-18.52,61.2-26.09,32.63-67.49,52.47-109.28,52.35-8.58,0-17.36-.89-25.15-4.51" transform="translate(-61.17 -115.63)"/><path class="cls-1" d="M367.18,181.27c-55.78.55-74-7.12-80.07-15.16s-9.45-18.21-8.56-28.23c.77-8.61,5.62-17.65,13.94-20,6.61-1.88,14.05,1.1,18.38,6.44,4.71,5.82,6.23,14,12,18.85-1.19-9.93,7.73-19.84,17.73-19.7s18.63,10.31,17.15,20.2c3.68-5.69,10.75-9.42,17.36-8s11.64,9,9.4,15.34A26.07,26.07,0,0,1,415.1,155a13.55,13.55,0,0,1,3.6,5.52c1.32,4.37-.88,9.22-4.34,12.2s-8,4.44-12.39,5.55a111.33,111.33,0,0,1-34.79,3" transform="translate(-61.17 -115.63)"/><path class="cls-1" d="M129,186.66a30.94,30.94,0,0,1-22.35-10.44c-2.88-3.29-5.08-7.36-5.32-11.72s1.81-9,5.68-11.06c5.57-3,12.32.11,17.85,3.15.26-3.68-1.22-7.23-2.53-10.68a35.26,35.26,0,0,1-2.76-11.39,19.06,19.06,0,0,1,5.56-14.09,16.78,16.78,0,0,1,14.31-4.57c5.8,1,10.66,5.33,13.4,10.55s3.56,11.24,3.56,17.13a18.16,18.16,0,0,1,12.18-10.33c5.39-1.19,11.52.9,14.58,5.49s2.37,11.49-1.91,15a25.93,25.93,0,0,1,11.19-.9,12.7,12.7,0,0,1,9.08,6.09c1.76,3.34,1.25,7.94-1.68,10.31a21.09,21.09,0,0,1,9,.26c1.95.49,4,1.4,4.91,3.19a5.6,5.6,0,0,1-.56,5.45,12.89,12.89,0,0,1-4.28,3.75c-6.55,4-23.73,6.78-79.89,4.83" transform="translate(-61.17 -115.63)"/><path class="cls-1" d="M387.84,238.94a14.48,14.48,0,0,1-10.46-4.88,9.37,9.37,0,0,1-2.48-5.49,5.52,5.52,0,0,1,2.65-5.17c2.61-1.39,5.77,0,8.36,1.47a12,12,0,0,0-1.19-5,16.45,16.45,0,0,1-1.29-5.33A8.92,8.92,0,0,1,386,208a7.85,7.85,0,0,1,6.7-2.14,9.17,9.17,0,0,1,6.27,4.93,17.24,17.24,0,0,1,1.67,8,8.46,8.46,0,0,1,5.7-4.83,6.61,6.61,0,0,1,6.82,2.57,5.45,5.45,0,0,1-.89,7,12.07,12.07,0,0,1,5.23-.43,6,6,0,0,1,4.25,2.86,4,4,0,0,1-.78,4.82,9.76,9.76,0,0,1,4.2.13,3.31,3.31,0,0,1,2.29,1.49,2.61,2.61,0,0,1-.26,2.55,5.83,5.83,0,0,1-2,1.75c-3.06,1.87-11.1,3.17-37.39,2.26" transform="translate(-61.17 -115.63)"/><g class="cls-2"><path class="cls-3" d="M259.63,170.06a1,1,0,0,0,0-2,1,1,0,0,0,0,2Z" transform="translate(-61.17 -115.63)"/></g><path class="cls-4" d="M187.42,300.36a90.15,90.15,0,0,1-12.91-8.54,95.74,95.74,0,0,1-20.68-22.69,95.37,95.37,0,0,1-7.34-13.51,92.35,92.35,0,0,1-5-14.53c-.16-.62-.31-1.24-.45-1.87-.07-.28-.5-.14-.43.14a91,91,0,0,0,4.76,14.79,94.62,94.62,0,0,0,7.11,13.7,96.19,96.19,0,0,0,20.36,23.21,91.27,91.27,0,0,0,12.7,8.76l1.68.94c.25.14.45-.27.2-.4Z" transform="translate(-61.17 -115.63)"/><path class="cls-4" d="M141.94,242.88c-3.17-1.45-6.45-5.72-7.13-9.9a9.33,9.33,0,0,1,0-3.57,4.84,4.84,0,0,1,1.8-3,3,3,0,0,1,2.91-.15c2.3,1,3.59,4,3.79,7.13a29.76,29.76,0,0,1-1.39,9.46" transform="translate(-61.17 -115.63)"/><path class="cls-4" d="M145.91,253.86c-3.06,1.66-8.45,1.71-12.19-.26a9.77,9.77,0,0,1-2.85-2.17,4.86,4.86,0,0,1-1.28-3.23,3,3,0,0,1,1.63-2.42c2.2-1.21,5.38-.44,8,1.28a29.68,29.68,0,0,1,6.71,6.8" transform="translate(-61.17 -115.63)"/><path class="cls-4" d="M145.6,254.35c-1.09-3.3-.19-8.62,2.42-11.95a9.39,9.39,0,0,1,2.63-2.42,4.82,4.82,0,0,1,3.4-.69,3,3,0,0,1,2.09,2c.81,2.38-.51,5.37-2.66,7.63a29.62,29.62,0,0,1-7.88,5.4" transform="translate(-61.17 -115.63)"/><path class="cls-4" d="M153.94,268.93c-2.77,2.11-8.09,3-12.09,1.6a9.55,9.55,0,0,1-3.14-1.71,4.86,4.86,0,0,1-1.76-3,3,3,0,0,1,1.24-2.64c2-1.54,5.25-1.26,8.08,0a29.78,29.78,0,0,1,7.67,5.7" transform="translate(-61.17 -115.63)"/><path class="cls-4" d="M153.7,269.46c-1.58-3.1-1.5-8.49.57-12.18a9.35,9.35,0,0,1,2.24-2.79,4.86,4.86,0,0,1,3.25-1.21,3,3,0,0,1,2.38,1.7c1.16,2.23.31,5.38-1.47,7.94a29.6,29.6,0,0,1-7,6.54" transform="translate(-61.17 -115.63)"/><path class="cls-4" d="M164.8,282.94c-2.45,2.47-7.59,4.08-11.75,3.27A9.42,9.42,0,0,1,149.7,285a4.85,4.85,0,0,1-2.16-2.71,3,3,0,0,1,.86-2.79c1.76-1.8,5-2,8-1.09a29.51,29.51,0,0,1,8.39,4.57" transform="translate(-61.17 -115.63)"/><path class="cls-4" d="M164.64,283.5c-2-2.85-2.68-8.2-1.15-12.15a9.53,9.53,0,0,1,1.82-3.07,4.87,4.87,0,0,1,3.06-1.65A3,3,0,0,1,171,268c1.46,2,1.06,5.29-.34,8.07a29.67,29.67,0,0,1-6,7.46" transform="translate(-61.17 -115.63)"/><path class="cls-4" d="M176.94,293.66a11.46,11.46,0,0,1-8.65,4.49,7.71,7.71,0,0,1-2.83-.43,3.9,3.9,0,0,1-2.13-1.77,2.36,2.36,0,0,1,.22-2.32c1.07-1.7,3.6-2.37,6.08-2.16a23.55,23.55,0,0,1,7.31,2.19" transform="translate(-61.17 -115.63)"/><path class="cls-4" d="M176.91,294.12a11.48,11.48,0,0,1-2.89-9.31,7.53,7.53,0,0,1,.92-2.7,3.83,3.83,0,0,1,2.12-1.79,2.41,2.41,0,0,1,2.25.62c1.47,1.36,1.69,4,1.05,6.37a23.65,23.65,0,0,1-3.45,6.81" transform="translate(-61.17 -115.63)"/><path class="cls-5" d="M179.17,392.73A26.38,26.38,0,0,1,165.68,400a43.34,43.34,0,0,1-15.49.27,64.77,64.77,0,0,1-40.38-22.76,15.63,15.63,0,0,1,6.69-3.85,56,56,0,0,1,55.36,11c2.08,1.83,6,5.57,7.31,8" transform="translate(-61.17 -115.63)"/><path class="cls-3" d="M114.47,378a235,235,0,0,1,24.29,5.8c8,2.27,16,4.66,24.11,6.55,4.53,1.06,9.11,2,13.72,2.6.41.05.54-.58.12-.64A187.77,187.77,0,0,1,152.36,387c-8-2.21-16-4.64-24.1-6.68-4.51-1.14-9.06-2.16-13.66-2.94-.41-.07-.54.57-.13.64Z" transform="translate(-61.17 -115.63)"/><path class="cls-3" d="M166,390.57a57.75,57.75,0,0,1-7.48,3.26,59.36,59.36,0,0,1-7.85,2.2c-1.51.31-3,.55-4.56.74-.41.06-.36.7,0,.65a59.28,59.28,0,0,0,8.13-1.59,58.29,58.29,0,0,0,7.82-2.71c1.44-.61,2.86-1.29,4.25-2a.32.32,0,1,0-.36-.54Z" transform="translate(-61.17 -115.63)"/><path class="cls-3" d="M157.39,388.2a25.51,25.51,0,0,0-5.07-5.94,50,50,0,0,0-6.42-4.69c-1.27-.81-2.56-1.58-3.85-2.35-.36-.22-.65.36-.29.58,2.24,1.34,4.49,2.69,6.63,4.2a35.46,35.46,0,0,1,5.87,5.07,22.53,22.53,0,0,1,2.59,3.49c.22.36.76,0,.54-.36Z" transform="translate(-61.17 -115.63)"/><path class="cls-3" d="M143.05,384.44a41,41,0,0,1-10.63,2.46c-1,.09-2,.15-3.06.17-.42,0-.37.65,0,.64a41.66,41.66,0,0,0,10.87-1.66c1-.3,2-.63,3-1,.39-.15.18-.76-.21-.61Z" transform="translate(-61.17 -115.63)"/><path class="cls-3" d="M133.18,381.45a26.51,26.51,0,0,0-8.6-6.46,23.89,23.89,0,0,0-2.83-1.14.33.33,0,0,0-.2.62,25.74,25.74,0,0,1,9,5.27,23.9,23.9,0,0,1,2.12,2.15.33.33,0,0,0,.48-.44Z" transform="translate(-61.17 -115.63)"/><path class="cls-6" d="M295.45,412.39c-1.46-9,.36-18.32,4.2-26.57s9.61-15.49,16.12-21.85a113.52,113.52,0,0,1,74.67-32c.83,4.48-.32,9.09-1.76,13.41a98.23,98.23,0,0,1-74.3,65.32c-4.76.94-14.14,2.43-18.93,1.65" transform="translate(-61.17 -115.63)"/><path class="cls-7" d="M384.88,338c-10.69,9.95-22.25,18.89-33.94,27.62s-23.52,17.31-34.8,26.59c-6.3,5.18-12.42,10.58-18.21,16.33-.52.51.23,1.37.75.85C309,399.16,320.42,390,332,381.2s23.52-17.33,35-26.41c6.4-5.07,12.65-10.33,18.63-15.89.54-.5-.21-1.36-.75-.86Z" transform="translate(-61.17 -115.63)"/><path class="cls-7" d="M312.48,396.36a101.75,101.75,0,0,1,3.42-13.87,103.37,103.37,0,0,1,5.3-13.27q1.77-3.64,3.82-7.14c.36-.63-.59-1.26-1-.63a105.67,105.67,0,0,0-6.44,13,104.12,104.12,0,0,0-4.56,13.76c-.68,2.67-1.25,5.35-1.72,8.06a.57.57,0,0,0,.53.6.58.58,0,0,0,.61-.53Z" transform="translate(-61.17 -115.63)"/><path class="cls-7" d="M324.94,386.89a44.56,44.56,0,0,0,13.68-.73A87.6,87.6,0,0,0,352,382.22c2.47-.91,4.92-1.88,7.37-2.85.68-.28.18-1.3-.5-1-4.26,1.7-8.53,3.39-12.91,4.76a61.14,61.14,0,0,1-13.32,2.76,39.6,39.6,0,0,1-7.62-.1c-.72-.09-.79,1.05-.07,1.13Z" transform="translate(-61.17 -115.63)"/><path class="cls-7" d="M345.46,370.94a71.79,71.79,0,0,1,7.9-17.41q1.42-2.28,3-4.45c.44-.59-.52-1.21-.95-.62a72.86,72.86,0,0,0-9.26,16.92c-.67,1.71-1.26,3.44-1.79,5.2-.21.7.87,1.06,1.08.36Z" transform="translate(-61.17 -115.63)"/><path class="cls-7" d="M360.12,360.38a46.31,46.31,0,0,0,18.16-5.08,48.3,48.3,0,0,0,4.6-2.72.57.57,0,0,0-.65-.94,45.09,45.09,0,0,1-17,6.95,46.6,46.6,0,0,1-5.24.66.57.57,0,0,0,.08,1.13Z" transform="translate(-61.17 -115.63)"/><path class="cls-8" d="M182.58,286.94a91.58,91.58,0,0,1-2.89-15.2,94.46,94.46,0,0,1-.34-15.32,96.31,96.31,0,0,1,6.71-30A91.83,91.83,0,0,1,193,212.68c.33-.55.67-1.09,1-1.63.16-.24-.24-.45-.4-.21a90.14,90.14,0,0,0-7.26,13.74,94.45,94.45,0,0,0-4.86,14.64A95.92,95.92,0,0,0,179,254.47a94.86,94.86,0,0,0,0,15.54,93.14,93.14,0,0,0,2.58,15.21c.16.62.33,1.24.5,1.85a.22.22,0,0,0,.43-.13Z" transform="translate(-61.17 -115.63)"/><path class="cls-8" d="M192,214.25c-1.17-3.28-.41-8.61,2.11-12a9.68,9.68,0,0,1,2.57-2.49,4.94,4.94,0,0,1,3.38-.78,3,3,0,0,1,2.15,2c.87,2.35-.38,5.37-2.47,7.69a29.57,29.57,0,0,1-7.74,5.6" transform="translate(-61.17 -115.63)"/><path class="cls-8" d="M186.91,224.76c-3.32-1-7.12-4.86-8.32-8.92a9.79,9.79,0,0,1-.43-3.55,4.85,4.85,0,0,1,1.42-3.17,3,3,0,0,1,2.87-.52c2.41.73,4.07,3.55,4.65,6.61a29.23,29.23,0,0,1-.19,9.55" transform="translate(-61.17 -115.63)"/><path class="cls-8" d="M186.34,224.88c1.61-3.09,6-6.15,10.25-6.61a9.39,9.39,0,0,1,3.57.2,4.84,4.84,0,0,1,2.87,1.95,3,3,0,0,1,0,2.92c-1.15,2.24-4.21,3.38-7.33,3.41a29.41,29.41,0,0,1-9.37-1.87" transform="translate(-61.17 -115.63)"/><path class="cls-8" d="M181.73,241c-3.45-.52-7.78-3.72-9.59-7.55a9.8,9.8,0,0,1-1-3.44,4.88,4.88,0,0,1,.92-3.35,3,3,0,0,1,2.76-.95c2.49.35,4.56,2.88,5.6,5.82a29.51,29.51,0,0,1,1.28,9.47" transform="translate(-61.17 -115.63)"/><path class="cls-8" d="M181.18,241.23c1.12-3.3,5-7,9.12-8.1a9.42,9.42,0,0,1,3.56-.34,4.79,4.79,0,0,1,3.13,1.49,3,3,0,0,1,.45,2.88c-.78,2.39-3.64,4-6.72,4.49a29.58,29.58,0,0,1-9.54-.42" transform="translate(-61.17 -115.63)"/><path class="cls-8" d="M179.27,258.58c-3.48,0-8.22-2.59-10.54-6.13a9.48,9.48,0,0,1-1.45-3.27,4.87,4.87,0,0,1,.44-3.44,3,3,0,0,1,2.6-1.33c2.51,0,4.92,2.21,6.37,5a29.87,29.87,0,0,1,2.58,9.2" transform="translate(-61.17 -115.63)"/><path class="cls-8" d="M178.76,258.86c.65-3.43,4-7.64,7.9-9.3a9.41,9.41,0,0,1,3.47-.84,4.83,4.83,0,0,1,3.31,1,3,3,0,0,1,.85,2.8c-.44,2.47-3,4.45-6,5.38a29.47,29.47,0,0,1-9.51.93" transform="translate(-61.17 -115.63)"/><path class="cls-8" d="M180.07,274.76a11.48,11.48,0,0,1-9.26-3.07,7.5,7.5,0,0,1-1.66-2.32,3.88,3.88,0,0,1-.23-2.76,2.42,2.42,0,0,1,1.82-1.47c2-.41,4.21.93,5.79,2.85a23.6,23.6,0,0,1,3.54,6.77" transform="translate(-61.17 -115.63)"/><path class="cls-8" d="M179.71,275.06a11.49,11.49,0,0,1,4.65-8.57,7.88,7.88,0,0,1,2.58-1.23,3.9,3.9,0,0,1,2.76.27,2.38,2.38,0,0,1,1.12,2.05c.06,2-1.65,4-3.82,5.2a23.86,23.86,0,0,1-7.29,2.28" transform="translate(-61.17 -115.63)"/><path class="cls-9" d="M309.77,357.63a91,91,0,0,1,5.9-14.3,94.21,94.21,0,0,1,8.11-13A96.57,96.57,0,0,1,334,318.67a94.85,94.85,0,0,1,11.85-9.78,90.8,90.8,0,0,1,13.31-7.7c.57-.28,1.16-.54,1.74-.8.26-.12,0-.51-.22-.4a90.55,90.55,0,0,0-13.6,7.52A94.53,94.53,0,0,0,335,317.1a96.09,96.09,0,0,0-18.88,24.44,93.4,93.4,0,0,0-6.17,14.14c-.2.61-.4,1.22-.59,1.83-.09.27.34.4.43.12Z" transform="translate(-61.17 -115.63)"/><path class="cls-9" d="M357.47,302c.81-3.39,4.37-7.43,8.34-8.9a9.57,9.57,0,0,1,3.51-.67,4.85,4.85,0,0,1,3.26,1.2,3,3,0,0,1,.71,2.83c-.57,2.45-3.26,4.3-6.28,5.08a29.49,29.49,0,0,1-9.54.46" transform="translate(-61.17 -115.63)"/><path class="cls-9" d="M347.44,308c-2.21-2.69-3.29-8-2.07-12a9.43,9.43,0,0,1,1.58-3.21,4.89,4.89,0,0,1,2.92-1.88,3,3,0,0,1,2.69,1.14c1.61,1.93,1.46,5.2.27,8.08a29.58,29.58,0,0,1-5.39,7.89" transform="translate(-61.17 -115.63)"/><path class="cls-9" d="M346.9,307.76c3-1.7,8.43-1.83,12.2.09A9.38,9.38,0,0,1,362,310a4.83,4.83,0,0,1,1.33,3.2,3,3,0,0,1-1.6,2.45c-2.18,1.25-5.37.52-8-1.16a29.66,29.66,0,0,1-6.82-6.7" transform="translate(-61.17 -115.63)"/><path class="cls-9" d="M334.19,318.75c-2.59-2.32-4.47-7.37-3.88-11.57a9.68,9.68,0,0,1,1.07-3.41,4.93,4.93,0,0,1,2.6-2.3,3,3,0,0,1,2.84.72c1.88,1.66,2.23,4.91,1.5,7.94a29.59,29.59,0,0,1-4.13,8.62" transform="translate(-61.17 -115.63)"/><path class="cls-9" d="M333.63,318.62c2.74-2.15,8-3.1,12.07-1.78a9.42,9.42,0,0,1,3.16,1.66,4.87,4.87,0,0,1,1.81,3,3,3,0,0,1-1.21,2.66c-2,1.57-5.22,1.34-8.08.08a29.79,29.79,0,0,1-7.75-5.58" transform="translate(-61.17 -115.63)"/><path class="cls-9" d="M322.53,332.09c-2.9-1.93-5.46-6.67-5.47-10.9a9.39,9.39,0,0,1,.59-3.53A4.83,4.83,0,0,1,319.9,315a3,3,0,0,1,2.9.31c2.1,1.38,2.9,4.54,2.6,7.65a29.61,29.61,0,0,1-2.87,9.11" transform="translate(-61.17 -115.63)"/><path class="cls-9" d="M322,332c2.41-2.51,7.53-4.2,11.7-3.45a9.51,9.51,0,0,1,3.37,1.19,4.91,4.91,0,0,1,2.2,2.68,3,3,0,0,1-.82,2.81c-1.72,1.82-5,2.05-8,1.21A29.72,29.72,0,0,1,322,332" transform="translate(-61.17 -115.63)"/><path class="cls-9" d="M314.33,346.06a11.47,11.47,0,0,1-6.06-7.63,7.56,7.56,0,0,1-.12-2.85,3.91,3.91,0,0,1,1.32-2.44,2.39,2.39,0,0,1,2.33-.23c1.87.73,3,3.08,3.29,5.55a23.5,23.5,0,0,1-.76,7.6" transform="translate(-61.17 -115.63)"/><path class="cls-9" d="M313.87,346.12a11.47,11.47,0,0,1,8.59-4.62,7.68,7.68,0,0,1,2.83.38,3.89,3.89,0,0,1,2.16,1.74,2.41,2.41,0,0,1-.18,2.33c-1,1.71-3.57,2.42-6,2.25a23.63,23.63,0,0,1-7.35-2.08" transform="translate(-61.17 -115.63)"/><path class="cls-9" d="M159,358a90,90,0,0,1-15.36,1.88,94.3,94.3,0,0,1-15.3-.68,95.9,95.9,0,0,1-29.51-8.69,91.55,91.55,0,0,1-13.23-7.81c-.53-.37-1-.74-1.56-1.12-.23-.18-.46.21-.23.38A91.06,91.06,0,0,0,97,350.12a95.33,95.33,0,0,0,14.29,5.82,97.07,97.07,0,0,0,15,3.45,94.65,94.65,0,0,0,15.51,1,91.93,91.93,0,0,0,15.35-1.56l1.88-.38c.28-.06.18-.5-.11-.44Z" transform="translate(-61.17 -115.63)"/><path class="cls-9" d="M87.09,343.77c-3.34,1-8.61-.16-11.84-2.9a9.54,9.54,0,0,1-2.31-2.73,4.89,4.89,0,0,1-.56-3.43,3,3,0,0,1,2.12-2c2.41-.71,5.35.74,7.52,3a29.67,29.67,0,0,1,5.07,8.09" transform="translate(-61.17 -115.63)"/><path class="cls-9" d="M97.24,349.56c-1.25,3.24-5.32,6.78-9.45,7.7a9.49,9.49,0,0,1-3.57.2,4.86,4.86,0,0,1-3.07-1.62,3,3,0,0,1-.33-2.9c.89-2.36,3.81-3.83,6.9-4.21a29.41,29.41,0,0,1,9.52.83" transform="translate(-61.17 -115.63)"/><path class="cls-9" d="M97.32,350.13c-3-1.81-5.73-6.43-5.92-10.67a9.58,9.58,0,0,1,.44-3.54A4.87,4.87,0,0,1,94,333.18a3,3,0,0,1,2.91.19c2.16,1.29,3.09,4.42,2.92,7.54a29.56,29.56,0,0,1-2.49,9.22" transform="translate(-61.17 -115.63)"/><path class="cls-9" d="M113.13,355.81c-.75,3.4-4.23,7.52-8.17,9.06a9.33,9.33,0,0,1-3.5.74,4.91,4.91,0,0,1-3.28-1.13,3,3,0,0,1-.76-2.82c.51-2.46,3.17-4.36,6.18-5.21a29.64,29.64,0,0,1,9.53-.64" transform="translate(-61.17 -115.63)"/><path class="cls-9" d="M113.29,356.37c-3.21-1.34-6.65-5.49-7.47-9.64a9.5,9.5,0,0,1-.11-3.57,4.84,4.84,0,0,1,1.7-3,3,3,0,0,1,2.91-.26c2.33.95,3.72,3.9,4,7a29.75,29.75,0,0,1-1.06,9.5" transform="translate(-61.17 -115.63)"/><path class="cls-9" d="M130.48,359.42c-.26,3.47-3.13,8-6.82,10.12a9.42,9.42,0,0,1-3.35,1.22,4.82,4.82,0,0,1-3.41-.66,3,3,0,0,1-1.15-2.68c.16-2.51,2.53-4.76,5.38-6a29.65,29.65,0,0,1,9.35-2" transform="translate(-61.17 -115.63)"/><path class="cls-9" d="M130.72,360c-3.37-.87-7.35-4.5-8.75-8.49a9.47,9.47,0,0,1-.61-3.53,4.84,4.84,0,0,1,1.25-3.23,3,3,0,0,1,2.85-.66c2.43.6,4.23,3.33,5,6.36a29.59,29.59,0,0,1,.29,9.55" transform="translate(-61.17 -115.63)"/><path class="cls-9" d="M146.68,359.7a11.47,11.47,0,0,1-3.68,9,7.55,7.55,0,0,1-2.42,1.51,3.87,3.87,0,0,1-2.78,0,2.4,2.4,0,0,1-1.34-1.91c-.28-2,1.2-4.14,3.23-5.59a23.81,23.81,0,0,1,7-3.08" transform="translate(-61.17 -115.63)"/><path class="cls-9" d="M147,360.08a11.48,11.48,0,0,1-8.24-5.21,7.66,7.66,0,0,1-1.05-2.65,3.88,3.88,0,0,1,.45-2.74,2.4,2.4,0,0,1,2.12-1c2,.08,3.86,1.92,4.93,4.17a23.8,23.8,0,0,1,1.79,7.42" transform="translate(-61.17 -115.63)"/><path class="cls-6" d="M184,375.05c-10.07,1.16-20.36-1.36-29.34-6.07s-16.73-11.51-23.47-19.08a126.46,126.46,0,0,1-31.65-84.79c5-.68,10.09.84,14.83,2.67a109.44,109.44,0,0,1,68.79,86.12c.79,5.34,2,15.86.84,21.15" transform="translate(-61.17 -115.63)"/><path class="cls-7" d="M106,271.62c10.51,12.42,19.85,25.76,29,39.22s18,27.08,27.76,40.12c5.44,7.29,11.13,14.38,17.22,21.13.54.6,1.54-.18,1-.79-10.88-12.07-20.47-25.22-29.66-38.6s-18.06-27.08-27.56-40.3c-5.31-7.38-10.83-14.62-16.71-21.57-.53-.62-1.52.17-1,.79Z" transform="translate(-61.17 -115.63)"/><path class="cls-7" d="M167.06,355.26a115.27,115.27,0,0,1-29.75-11.14q-4-2.16-7.75-4.62c-.68-.44-1.43.58-.74,1A116.24,116.24,0,0,0,143,348.38a113.18,113.18,0,0,0,15.07,5.8c2.93.9,5.89,1.67,8.88,2.34a.63.63,0,1,0,.14-1.26Z" transform="translate(-61.17 -115.63)"/><path class="cls-7" d="M157.18,340.89a49.8,49.8,0,0,0-.1-15.27,99.29,99.29,0,0,0-3.68-15.08c-.88-2.8-1.84-5.57-2.79-8.35-.27-.77-1.43-.26-1.17.5,1.67,4.83,3.32,9.67,4.61,14.62a68.94,68.94,0,0,1,2.39,15,44.54,44.54,0,0,1-.52,8.48c-.13.81,1.13.94,1.26.14Z" transform="translate(-61.17 -115.63)"/><path class="cls-7" d="M140.5,317.22a79.93,79.93,0,0,1-19-9.71q-2.46-1.71-4.79-3.6c-.63-.51-1.38.52-.74,1a81.21,81.21,0,0,0,18.34,11.2c1.86.83,3.77,1.58,5.69,2.26.77.27,1.23-.91.46-1.18Z" transform="translate(-61.17 -115.63)"/><path class="cls-7" d="M129.52,300.35a51.78,51.78,0,0,0-4.7-20.48,52.91,52.91,0,0,0-2.79-5.26.64.64,0,0,0-1.08.67,50.36,50.36,0,0,1,6.85,19.24,52.18,52.18,0,0,1,.46,5.86.63.63,0,0,0,1.26,0Z" transform="translate(-61.17 -115.63)"/><path class="cls-10" d="M166.14,424.28A11.26,11.26,0,0,1,154.87,413h0a11.26,11.26,0,0,1,11.27-11.27H305a1.46,1.46,0,0,0,1.46-1.46v0a1.4,1.4,0,0,0-1.39-1.4H164.13a14.4,14.4,0,0,0-14.4,14.4h0a14.4,14.4,0,0,0,14.4,14.4H304.77a1.69,1.69,0,0,0,1.69-1.69v-.08a1.57,1.57,0,0,0-1.57-1.58Z" transform="translate(-61.17 -115.63)"/><path class="cls-11" d="M154.87,413h0A11.21,11.21,0,0,0,166,424.28H305l-.2-.77a42.19,42.19,0,0,1,0-21l.2-.77H166A11.21,11.21,0,0,0,154.87,413Z" transform="translate(-61.17 -115.63)"/><path class="cls-12" d="M158.14,415.24h0A11.21,11.21,0,0,1,169.3,404H304.45c.1-.49.2-1,.32-1.46l.2-.77H166A11.21,11.21,0,0,0,154.87,413h0a11.26,11.26,0,0,0,6.66,10.31A11.28,11.28,0,0,1,158.14,415.24Z" transform="translate(-61.17 -115.63)"/><rect class="cls-12" x="135.75" y="294.69" width="60.72" height="0.83"/><rect class="cls-12" x="173.92" y="302.61" width="60.72" height="0.83"/><polygon class="cls-8" points="157.9 295.21 157.9 308.15 163.79 303.35 169.57 307.98 168.9 295.16 157.9 295.21"/><rect class="cls-13" x="108.68" y="261.93" width="153.82" height="21.27" rx="9.4"/><rect class="cls-14" x="238.76" y="261.93" width="2.53" height="21.27"/><rect class="cls-14" x="227.56" y="261.93" width="2.53" height="21.27"/><path class="cls-15" d="M169.85,383.5v3l120.44-9H177.14C173.11,377.56,169.85,381.31,169.85,383.5Z" transform="translate(-61.17 -115.63)"/><rect class="cls-14" x="127.14" y="261.93" width="2.53" height="21.27"/><rect class="cls-14" x="137.85" y="261.93" width="2.53" height="21.27"/><path class="cls-11" d="M178.12,362.94h0c0,6.23,4.66,11.28,10.41,11.28H318l-.18-.78a44.86,44.86,0,0,1,0-21l.18-.78H188.53C182.78,351.67,178.12,356.72,178.12,362.94Z" transform="translate(-61.17 -115.63)"/><path class="cls-10" d="M188.63,374.22c-5.8,0-10.51-5.05-10.51-11.28h0c0-6.22,4.71-11.27,10.51-11.27H318.06a1.41,1.41,0,0,0,1.36-1.46v0a1.34,1.34,0,0,0-1.3-1.39H186.76c-7.41,0-13.42,6.44-13.42,14.4h0c0,7.95,6,14.39,13.42,14.39H317.84a1.64,1.64,0,0,0,1.58-1.69v-.08a1.52,1.52,0,0,0-1.47-1.57Z" transform="translate(-61.17 -115.63)"/><path class="cls-12" d="M181.18,365.17h0c0-6.22,4.65-11.27,10.4-11.27h126c.1-.48.19-1,.31-1.45l.18-.78H188.53c-5.75,0-10.41,5.05-10.41,11.27h0a11.34,11.34,0,0,0,6.21,10.31A11.69,11.69,0,0,1,181.18,365.17Z" transform="translate(-61.17 -115.63)"/><rect class="cls-12" x="136.57" y="244.65" width="60.72" height="0.83"/><rect class="cls-12" x="174.73" y="252.57" width="60.72" height="0.83"/><path class="cls-8" d="M287.77,288.59a9.81,9.81,0,0,0,9.81-9.81h0a9.81,9.81,0,0,0-9.81-9.8H167a1.26,1.26,0,0,1-1.26-1.27v0a1.22,1.22,0,0,1,1.21-1.22H289.52A12.52,12.52,0,0,1,302,279h0a12.51,12.51,0,0,1-12.52,12.52H167.19a1.47,1.47,0,0,1-1.47-1.47V290a1.36,1.36,0,0,1,1.36-1.37Z" transform="translate(-61.17 -115.63)"/><path class="cls-11" d="M297.58,278.78h0a9.76,9.76,0,0,1-9.71,9.81H167l.17-.68a36.43,36.43,0,0,0,0-18.26L167,269H287.87A9.76,9.76,0,0,1,297.58,278.78Z" transform="translate(-61.17 -115.63)"/><path class="cls-12" d="M294.73,280.73h0a9.76,9.76,0,0,0-9.71-9.81H167.47c-.1-.42-.18-.85-.29-1.27L167,269H287.87a9.76,9.76,0,0,1,9.71,9.8h0a9.81,9.81,0,0,1-5.8,9A9.79,9.79,0,0,0,294.73,280.73Z" transform="translate(-61.17 -115.63)"/><rect class="cls-12" x="147.01" y="160.82" width="52.82" height="0.72"/><rect class="cls-12" x="161.78" y="167.34" width="52.82" height="0.72"/><rect class="cls-8" x="100.84" y="204.74" width="153.82" height="28.34" rx="9.4"/><rect class="cls-14" x="230.91" y="204.74" width="2.53" height="28.34"/><rect class="cls-14" x="219.71" y="204.74" width="2.53" height="28.34"/><path class="cls-16" d="M162,327.66v4.66l120.44-11.94H169.29A7.28,7.28,0,0,0,162,327.66Z" transform="translate(-61.17 -115.63)"/><rect class="cls-14" x="119.29" y="204.74" width="2.53" height="28.34"/><rect class="cls-14" x="130.01" y="204.74" width="2.53" height="28.34"/><path class="cls-10" d="M167.75,317c-5.07,0-9.19-5-9.19-11.27h0c0-6.23,4.12-11.27,9.19-11.27H281a1.35,1.35,0,0,0,1.19-1.46v-.05a1.29,1.29,0,0,0-1.14-1.4H166.11c-6.48,0-11.74,6.45-11.74,14.4h0c0,8,5.26,14.4,11.74,14.4H280.77a1.56,1.56,0,0,0,1.38-1.69v-.08a1.46,1.46,0,0,0-1.28-1.58Z" transform="translate(-61.17 -115.63)"/><path class="cls-11" d="M158.56,305.68h0c0,6.23,4.08,11.27,9.1,11.27H280.94l-.17-.77a51.58,51.58,0,0,1,0-21l.17-.77H167.66C162.64,294.41,158.56,299.45,158.56,305.68Z" transform="translate(-61.17 -115.63)"/><path class="cls-12" d="M161.23,307.91h0c0-6.22,4.07-11.27,9.1-11.27H280.51c.08-.49.16-1,.26-1.46l.17-.77H167.66c-5,0-9.1,5-9.1,11.27h0c0,4.61,2.23,8.56,5.43,10.31A12.68,12.68,0,0,1,161.23,307.91Z" transform="translate(-61.17 -115.63)"/><rect class="cls-12" x="131.68" y="187.36" width="49.5" height="0.83"/><rect class="cls-12" x="162.79" y="195.28" width="49.5" height="0.83"/><polygon class="cls-13" points="176.43 195.74 176.43 208.68 181.22 203.88 185.94 208.52 185.39 195.69 176.43 195.74"/><path class="cls-17" d="M265.58,154.77a23.26,23.26,0,0,1-7.79,13.37.82.82,0,0,0-.32.44.67.67,0,0,0,.2.49,4.15,4.15,0,0,0,1.92,1,28.23,28.23,0,0,0,8.21,1.25,2.23,2.23,0,0,0,1.48-.37,2.28,2.28,0,0,0,.55-1,67.94,67.94,0,0,0,2.54-8.72.94.94,0,0,0,0-.41c0-.26-.31-.43-.54-.58a18.26,18.26,0,0,1-4.53-4.06" transform="translate(-61.17 -115.63)"/><path class="cls-18" d="M272.4,160.89c0-.26-.31-.43-.54-.58a18.26,18.26,0,0,1-4.53-4.06l-1.75-1.48c-.09.46-.21.91-.32,1.37a4.65,4.65,0,0,1,.29,1.5c.09,2.07,2.21,4.23,3,6.15a10.17,10.17,0,0,1,.24,7.45,1.47,1.47,0,0,0,.48-.25,2.28,2.28,0,0,0,.55-1,67.94,67.94,0,0,0,2.54-8.72A.94.94,0,0,0,272.4,160.89Z" transform="translate(-61.17 -115.63)"/><path class="cls-13" d="M286.53,168.61a9.44,9.44,0,0,1-.31-7.08,20.52,20.52,0,0,0,1.31-3.58,8.56,8.56,0,0,0-1.39-5.31,18.17,18.17,0,0,1-2.32-5,7.17,7.17,0,0,1,2.32-6.67l2.14,1.13a10.41,10.41,0,0,0,.6,8,19.82,19.82,0,0,1,2.05,4c.62,2.47-.67,5-2,7.17s-2.71,4.58-2.33,7.1" transform="translate(-61.17 -115.63)"/><path class="cls-17" d="M277.4,128.87A11.16,11.16,0,0,1,287.33,142c-.29,1.53-.89,3-1.12,4.53a5.06,5.06,0,0,0,1.08,4.37c.41.41.76.7,1.14,1.15s.61.81.28,1.29-1.3.84-1.92,1.29a2.55,2.55,0,0,0-.73,1,42.26,42.26,0,0,1-6,9.12,1.08,1.08,0,0,1-.45.37,1.19,1.19,0,0,1-.86-.13,51.79,51.79,0,0,1-8.94-4.46,17.58,17.58,0,0,1-6.54-7.38,13.22,13.22,0,0,1-.4-9.21" transform="translate(-61.17 -115.63)"/><path class="cls-13" d="M285.31,147.75c0,.49-.28.88-.62.88s-.61-.39-.61-.88.27-.87.61-.87S285.31,147.27,285.31,147.75Z" transform="translate(-61.17 -115.63)"/><path class="cls-19" d="M283.7,153.16a2.57,2.57,0,1,1-2.57-2.57A2.57,2.57,0,0,1,283.7,153.16Z" transform="translate(-61.17 -115.63)"/><path class="cls-20" d="M285,157.48l-3-.63a8,8,0,0,0,2.09,1.65C284.82,158.7,285,157.48,285,157.48Z" transform="translate(-61.17 -115.63)"/><path class="cls-13" d="M260.14,134.53a16.41,16.41,0,0,1-9.56-.76,7.1,7.1,0,0,1-3.63-3.19,7.35,7.35,0,0,1-.43-4.79,11.15,11.15,0,0,1,9.41-8.5,9.47,9.47,0,0,1,7.25,2.13,7.5,7.5,0,0,1,2.47,7" transform="translate(-61.17 -115.63)"/><path class="cls-13" d="M289,131.16A20.41,20.41,0,0,0,274.47,124c-4.42-.28-7.94.18-11,2s-4.71,4.52-6.53,7.58c-2.16,3.67-3.53,6.06-3.39,10.32a14.32,14.32,0,0,0,5.42,10.8c.9.71,3.23,2.58,4.36,2.71,1.41.16,1.39.48,2.44-.48a9.44,9.44,0,0,0,2.3-3.54c.58-1.45,1.1-3.15,2.52-3.81,1.17-.54,2.43-.17,3.72.17a7,7,0,0,0,0,.92c.2,2.25,1.28,4.31,2.16,6.39s1.59,4.39,1,6.57a24.08,24.08,0,0,1-2,4.15,11.46,11.46,0,0,0-.51,8.57l.15-.3c-.14-3.08,1.86-5.8,3.7-8.27s3.71-5.34,3.26-8.39c-.26-1.8-1.3-3.38-2-5.07a12.48,12.48,0,0,1-.83-5l.61-.3c3.42-1.76,6.81-3.9,8.9-7.13S291.34,134.18,289,131.16Z" transform="translate(-61.17 -115.63)"/><path class="cls-8" d="M256.05,136.68s-1.31,0,.91-3a122.22,122.22,0,0,1,8.3-9.08s1-.6-.77,3.19S258.65,135.05,256.05,136.68Z" transform="translate(-61.17 -115.63)"/><path class="cls-8" d="M265.53,124.68s.85-.38,2.12,1.39a39.05,39.05,0,0,1,2.93,5.87s.15.65-1.63-1A14.28,14.28,0,0,1,265.53,124.68Z" transform="translate(-61.17 -115.63)"/><path class="cls-8" d="M265.53,124.92s0-.8,1.74-1.47a31.41,31.41,0,0,1,5.25-1.12s.54,0-1.24,1.12A12,12,0,0,1,265.53,124.92Z" transform="translate(-61.17 -115.63)"/><path class="cls-8" d="M266.76,124.85a1.23,1.23,0,1,1-1.23-1.22A1.23,1.23,0,0,1,266.76,124.85Z" transform="translate(-61.17 -115.63)"/><path class="cls-17" d="M272.48,149.51c.5,1.2.53,4.25-.74,4.55a2.89,2.89,0,0,1-2.4-.66,5.52,5.52,0,0,1-1.47-2.09,5,5,0,0,1-.48-3.19,2.47,2.47,0,0,1,2.33-2,2.54,2.54,0,0,1,1.88,1.2,7.73,7.73,0,0,1,.88,2.14" transform="translate(-61.17 -115.63)"/><path class="cls-18" d="M272.12,152.42c-3.26,0-4.66-2.88-4.19-5.36a2.81,2.81,0,0,0-.54,1.06,5,5,0,0,0,.48,3.19,5.52,5.52,0,0,0,1.47,2.09,2.89,2.89,0,0,0,2.4.66c.57-.14.88-.84,1-1.68A4.12,4.12,0,0,1,272.12,152.42Z" transform="translate(-61.17 -115.63)"/><path class="cls-17" d="M317.19,308.34c.51,4.5,1.54,9.34-2.47,16.37a6.62,6.62,0,0,0-1.19,2.39c-.15,1.61,1.37,2.9,2.9,3.42s3.21.57,4.64,1.31c1.73.89,2.84,2.62,4.22,4a12.69,12.69,0,0,0,6.77,3.5c.29.05.68,0,.78-.25a.59.59,0,0,0,0-.41c-.65-1.62-2.32-2.56-3.43-3.91s-1.59-3-2.42-4.53c-.68-1.22-1.8-3.51-2.34-4.81-.85-2.09-.49-4.32,0-6.53A96.6,96.6,0,0,1,327,309" transform="translate(-61.17 -115.63)"/><path class="cls-21" d="M262.4,237.3a110.58,110.58,0,0,1,38.68-5.45c9.7.36,20.25,2.5,26.43,10,4.45,5.4,4.93,8,5.35,15,.38,6.35-.47,16.94-1,23.27-.94,10.76-1.18,21.93-3.59,32.45a2.1,2.1,0,0,1-.41,1,2,2,0,0,1-1,.48,20.38,20.38,0,0,1-9.19.27,2.2,2.2,0,0,1-1.2-.53,2.28,2.28,0,0,1-.47-1.32c-1-7.45-1.83-19.05-2.47-26.55-.51-6-.42-8-2.4-13.71a11.48,11.48,0,0,0-2.26-4.27c-2.28-2.4-6-2.58-9.3-2.41-11.18.58-22.48,3.44-33.43,1.12" transform="translate(-61.17 -115.63)"/><path class="cls-17" d="M302.77,265.26a19,19,0,0,1-6.67,11.51,5.3,5.3,0,0,0-1.8,2c-.59,1.51.52,3.17,1.85,4.08s2.94,1.43,4.12,2.53c1.42,1.33,2,3.29,3,5a12.67,12.67,0,0,0,5.56,5.21c.27.13.65.23.82,0a.64.64,0,0,0,.06-.41c-.18-1.74-1.53-3.1-2.23-4.7s-.7-3.34-1.09-5a52.35,52.35,0,0,1-.93-5.27c-.26-2.24.46-3.26,1.52-5.26a88.31,88.31,0,0,1,5.36-7.47" transform="translate(-61.17 -115.63)"/><path class="cls-22" d="M238.8,244.53c-.53,5.26-.69,11.35,2.46,15.71,4.61,6.4,13.87,7.57,21.75,8s15.78-.3,22.6-4.27,12.75-9.29,18.35-14.86c8.14-8.09,15.72-16.74,23.08-25.56-12,11.8-23.26,25.32-27.26,41.64a2,2,0,0,0-.06,1,2,2,0,0,0,1,1l10,5.41a1.92,1.92,0,0,0,3-.63,228.26,228.26,0,0,0,14.86-20.25c6.75-10.1,13.37-21,14.19-33.08.2-3.09-.09-6.48-2.18-8.74-2.32-2.52-6.12-2.89-9.54-2.87-14,.12-29,8.93-41.47,15.2s-27,23-35.9,4.18" transform="translate(-61.17 -115.63)"/><path class="cls-8" d="M340.72,184.86,358,162.5a.81.81,0,0,1,1.45.43l1.41,16.74-10.59,16.59Z" transform="translate(-61.17 -115.63)"/><polygon class="cls-23" points="271.4 73.67 295.29 46.1 299.12 63.64 299.12 63.64 271.4 73.67"/><polygon class="cls-3" points="268.74 73.67 281.14 51.11 299.69 64.04 268.74 73.67"/><path class="cls-8" d="M318.85,199.23c3.13-5.08,13.89-22.11,16.85-26.8a1.8,1.8,0,0,1,2.1-.74l23.06,8-17.25,27a1.09,1.09,0,0,1-1.2.47l-22.83-6.1A1.23,1.23,0,0,1,318.85,199.23Z" transform="translate(-61.17 -115.63)"/><path class="cls-24" d="M360.35,179.49a4.15,4.15,0,0,1-2,2.55c-3,1.77-5.14,5-7.9,7.22a62.18,62.18,0,0,1-9.08,6.07A54.22,54.22,0,0,1,319.51,201l.07,0,22.83,6.1a1.09,1.09,0,0,0,1.2-.47l17.25-27Z" transform="translate(-61.17 -115.63)"/><path class="cls-5" d="M260.71,164.92c-8.57,5.33-14.44,14.27-17.68,23.82s-4.07,19.75-4.29,29.83.14,20.2-.85,30.24c-.07.69,0,1.6.68,1.77.44.12.87-.2,1.23-.49,10.09-8.28,23.15-11.84,34.7-17.92a4.47,4.47,0,0,0,1.8-1.4,4.4,4.4,0,0,0,.49-1.37l1.35-5.49c2-8,3.95-16.1,4.25-24.35a34.89,34.89,0,0,0-6-21.65c-.85-1.31-4-6.87-5.08-8-2.84-2.77-6.35-1-10.58-5" transform="translate(-61.17 -115.63)"/><path class="cls-25" d="M278.23,178.4a4,4,0,0,1-3.92,2.52c-6.9-.42-14.31-.43-21.23-1.48-.72,8,.77,16.44,5.29,23.18,5.07,7.55,13,12.32,21,16.23a100.35,100.35,0,0,0,3-19.29C282.66,192.3,281.55,184.82,278.23,178.4Z" transform="translate(-61.17 -115.63)"/><path class="cls-17" d="M331.63,200.83c1.29.74,3,.06,4-1a38.31,38.31,0,0,0,2.66-3.4c1.11-1.42,3.43-2.47,5.64-4a.34.34,0,0,1,.53.36c-.36,1.32-2.36,3.46-2.68,4.69a.47.47,0,0,0,0,.42.46.46,0,0,0,.4.09c2.46-.25,4.32-2.34,6.64-3.23a1.63,1.63,0,0,1,1.06-.12c.75.23.18,1.75,0,2.51a9.53,9.53,0,0,1-2.85,4.39c-4.41,3.86-9.7,4.72-15.5,3.91" transform="translate(-61.17 -115.63)"/><path class="cls-5" d="M253.49,174.51c3.18-2.29,7.29-2.43,11.05-1.77,7.22,1.27,13.86,5.13,19.92,9.61,5.64,4.15,11,8.91,17.07,12.15,8.2,4.36,17.51,5.78,26.62,5.51,1.74,0,3.56-.14,5.1.72s2.6,3.09,1.71,4.72a4.83,4.83,0,0,1-2.6,1.87c-7.22,3-14.48,6-22,7.69s-15.48,2.18-22.95.07c-10.29-2.9-19-10.38-26.68-18.37a32.47,32.47,0,0,1-6-7.86c-1.5-3-4.64-10-1.17-14.34" transform="translate(-61.17 -115.63)"/><g class="cls-2"><path class="cls-3" d="M264.57,181.22a1,1,0,0,0,0-2,1,1,0,0,0,0,2Z" transform="translate(-61.17 -115.63)"/></g><g class="cls-2"><path class="cls-3" d="M281,203.06a1,1,0,0,0,0-2,1,1,0,0,0,0,2Z" transform="translate(-61.17 -115.63)"/></g><g class="cls-2"><path class="cls-3" d="M283.22,187a1,1,0,0,0,0-2,1,1,0,0,0,0,2Z" transform="translate(-61.17 -115.63)"/></g><g class="cls-2"><path class="cls-3" d="M268.72,196a1,1,0,0,0,0-2,1,1,0,0,0,0,2Z" transform="translate(-61.17 -115.63)"/></g><g class="cls-2"><path class="cls-3" d="M300.12,201.78a1,1,0,0,0,0-2,1,1,0,0,0,0,2Z" transform="translate(-61.17 -115.63)"/></g><g class="cls-2"><path class="cls-3" d="M296.64,213.58a1,1,0,0,0,0-2,1,1,0,0,0,0,2Z" transform="translate(-61.17 -115.63)"/></g><g class="cls-2"><path class="cls-3" d="M320,206.24a1,1,0,0,0,0-2,1,1,0,0,0,0,2Z" transform="translate(-61.17 -115.63)"/></g><g class="cls-2"><path class="cls-3" d="M272.22,227a1,1,0,0,0,0-2,1,1,0,0,0,0,2Z" transform="translate(-61.17 -115.63)"/></g><g class="cls-2"><path class="cls-3" d="M259.47,211.19a1,1,0,0,0,0-2,1,1,0,0,0,0,2Z" transform="translate(-61.17 -115.63)"/></g><g class="cls-2"><path class="cls-3" d="M256,231.75a1,1,0,0,0,0-2,1,1,0,0,0,0,2Z" transform="translate(-61.17 -115.63)"/></g><g class="cls-2"><path class="cls-3" d="M243.69,243.07a1,1,0,0,0,0-2,1,1,0,0,0,0,2Z" transform="translate(-61.17 -115.63)"/></g><g class="cls-2"><path class="cls-3" d="M244.17,217.72a1,1,0,0,0,0-2,1,1,0,0,0,0,2Z" transform="translate(-61.17 -115.63)"/></g><g class="cls-2"><path class="cls-3" d="M251.18,198a1,1,0,0,0,0-2,1,1,0,0,0,0,2Z" transform="translate(-61.17 -115.63)"/></g><g class="cls-2"><path class="cls-3" d="M251.18,182.65a1,1,0,0,0,0-2,1,1,0,0,0,0,2Z" transform="translate(-61.17 -115.63)"/></g><g class="cls-2"><path class="cls-3" d="M276.05,215a1,1,0,0,0,0-2,1,1,0,0,0,0,2Z" transform="translate(-61.17 -115.63)"/></g><g class="cls-2"><path class="cls-3" d="M241.78,201.78a1,1,0,0,0,0-2,1,1,0,0,0,0,2Z" transform="translate(-61.17 -115.63)"/></g></g></svg>